<svg width="21" height="19" viewBox="0 0 21 19" fill="none" xmlns="http://www.w3.org/2000/svg">
<path fill-rule="evenodd" clip-rule="evenodd" d="M15.3323 0.364211C14.2699 0.249987 12.9307 0.249993 11.2223 0.25H9.27767C7.56927 0.249993 6.23011 0.249987 5.16765 0.364211C4.08343 0.480775 3.20494 0.722915 2.45487 1.26368C2.00078 1.59106 1.60145 1.98731 1.27154 2.43791C1.12113 2.64333 0.992336 2.86029 0.882438 3.0912C0.545892 3.79835 0.395777 4.61834 0.322618 5.59617C0.249996 6.56683 0.249998 7.75668 0.25 9.22375V9.29177C0.249993 10.987 0.249986 12.3159 0.365096 13.3702C0.482564 14.4461 0.726581 15.3178 1.27154 16.0621C1.60145 16.5127 2.00078 16.9089 2.45487 17.2363C3.20494 17.7771 4.08343 18.0192 5.16765 18.1358C6.23009 18.25 7.56922 18.25 9.27758 18.25H11.2223C12.9307 18.25 14.2699 18.25 15.3323 18.1358C16.4166 18.0192 17.2951 17.7771 18.0451 17.2363C18.4992 16.9089 18.8986 16.5127 19.2285 16.0621C19.7734 15.3178 20.0174 14.4461 20.1349 13.3702C20.25 12.3159 20.25 10.9871 20.25 9.29186V9.22314C20.25 7.74606 20.25 6.54987 20.1758 5.57527C20.101 4.59313 19.9475 3.77042 19.6031 3.06119C19.4964 2.84139 19.3723 2.63434 19.2285 2.43791C18.8986 1.98731 18.4992 1.59106 18.0451 1.26368C17.2951 0.722915 16.4166 0.480775 15.3323 0.364211ZM3.27504 2.38386C3.7476 2.04316 4.35245 1.84457 5.31795 1.74077C6.29651 1.63557 7.56017 1.63462 9.31977 1.63462H11.1802C12.9398 1.63462 14.2035 1.63557 15.1821 1.74077C16.1476 1.84457 16.7524 2.04316 17.225 2.38386C17.5604 2.62571 17.8555 2.91844 18.0993 3.25129L16.3344 5.00256C14.7701 6.55486 13.6454 7.6688 12.6753 8.40323C11.7214 9.12548 10.9994 9.41517 10.25 9.41517C9.50059 9.41517 8.77861 9.12548 7.82465 8.40323C6.8546 7.6688 5.72993 6.55486 4.16559 5.00256L2.40075 3.25129C2.64453 2.91844 2.93957 2.62571 3.27504 2.38386ZM18.6568 4.65619C18.713 4.95179 18.7547 5.28899 18.7844 5.67958C18.8542 6.59609 18.8547 7.74061 18.8547 9.25C18.8547 10.9961 18.8537 12.25 18.7477 13.221C18.6431 14.1791 18.4429 14.7793 18.0996 15.2482C17.8558 15.5813 17.5606 15.8742 17.225 16.1161C16.7524 16.4568 16.1476 16.6554 15.1821 16.7592C14.2035 16.8644 12.9398 16.8654 11.1802 16.8654H9.31977C7.56017 16.8654 6.29651 16.8644 5.31795 16.7592C4.35245 16.6554 3.7476 16.4568 3.27504 16.1161C2.93941 15.8742 2.64425 15.5813 2.4004 15.2482C2.05706 14.7793 1.85693 14.1791 1.75233 13.221C1.64631 12.25 1.64535 10.9961 1.64535 9.25C1.64535 7.75134 1.64579 6.61225 1.71414 5.69868C1.74397 5.30001 1.7861 4.95663 1.84322 4.65619L3.21667 6.01907C4.73506 7.52581 5.925 8.7066 6.97826 9.50403C8.05634 10.3202 9.07284 10.7998 10.25 10.7998C11.4272 10.7998 12.4437 10.3202 13.5217 9.50403C14.575 8.7066 15.7649 7.52582 17.2833 6.0191L18.6568 4.65619Z" fill="#2E180F" stroke="#2E180F" stroke-width="0.5"/>
</svg>
