<svg width="20" height="21" viewBox="0 0 20 21" fill="none" xmlns="http://www.w3.org/2000/svg">
<path d="M11.197 0C11.6942 0 12.3757 1.53975 13.2228 3.59894C14.2357 5.9735 14.7514 6.65989 18.3057 8.71908C19.4844 9.38692 20 9.90636 20 10.7597C20 11.2792 19.8342 11.2791 19.1528 11.6131C14.5856 13.3198 14.4015 13.6537 11.8601 20.1466C11.6943 20.4806 11.3628 21 10.6814 21C9.6685 21 8.65558 19.4602 6.27989 15.0265C5.59848 13.4867 4.23566 12.8004 1.87838 11.78C0.681324 11.2791 0 10.4258 0 9.7394C0 9.053 1.69431 8.19965 2.89136 7.68021C6.27995 6.32597 6.77713 5.97349 8.82133 2.3931C9.66848 0.68639 9.99993 0 11.197 0Z" fill="#9C0000"/>
</svg>
