<svg width="343" height="41" viewBox="0 0 343 41" fill="none" xmlns="http://www.w3.org/2000/svg">
<g clip-path="url(#clip0_203_73)">
<path d="M340.464 23.9922C340.588 23.9922 340.757 24.3745 340.968 24.8859C341.22 25.4756 341.349 25.646 342.234 26.1574C342.527 26.3232 342.656 26.4522 342.656 26.6641C342.656 26.7931 342.614 26.7931 342.445 26.876C341.308 27.2998 341.262 27.3827 340.629 28.9951C340.588 29.078 340.505 29.207 340.335 29.207C340.083 29.207 339.831 28.8247 339.239 27.7236C339.07 27.3413 338.73 27.1708 338.143 26.9175C337.845 26.7931 337.676 26.5812 337.676 26.4107C337.676 26.2403 338.098 26.0284 338.396 25.8994C339.239 25.5631 339.363 25.4756 339.872 24.5865C340.083 24.1626 340.166 23.9922 340.464 23.9922Z" fill="#9C0000"/>
<path d="M330.059 12.6367C331.242 12.6367 332.421 13.2724 333.141 13.9496C333.856 14.6683 334.406 15.562 334.7 16.7459C335.204 16.534 335.883 16.3221 336.048 16.4096C336.217 16.5755 336.217 16.7459 336.176 16.8749C336.007 17.2573 335.626 17.5936 335.374 17.6811C332.76 18.3168 327.656 19.2474 325.882 19.7127C325.712 19.7541 325.629 19.966 325.629 20.5189C325.712 25.1809 327.95 26.9176 330.44 26.9176C332.76 26.9176 334.236 26.2404 335.461 24.969C335.585 24.84 335.713 24.84 335.713 24.969C335.713 25.3513 335.626 25.7751 335.291 26.0285C333.686 27.4704 331.957 28.2766 330.651 28.7419C330.1 28.9123 329.596 28.9538 329.174 28.9538C326.556 28.9538 324.827 27.2171 324.323 26.7057C323.69 26.0285 322.594 24.2042 322.594 21.6199C322.594 18.1049 324.492 15.4745 326.684 13.9082C327.61 13.231 328.922 12.6367 330.059 12.6367ZM331.957 17.1698C331.957 15.6864 330.353 13.6963 328.711 13.6963C328.372 13.6963 328.032 13.7792 327.739 14.0326C326.514 14.9677 325.758 17.0454 325.758 19.0355C327.867 18.6117 329.637 18.1049 331.577 17.5936C331.829 17.5521 331.957 17.4231 331.957 17.1698Z" fill="#2E180F"/>
<path d="M314.203 12.2949C315.129 12.2949 316.312 12.7187 316.986 13.1426C317.238 13.313 317.701 13.4835 317.83 13.442C318.504 13.3959 320.443 12.8063 321.328 12.8063C321.668 12.8063 321.879 13.0182 321.961 13.2716C322.09 13.442 322.131 14.2896 322.131 14.5845C322.131 14.6674 321.92 14.9254 321.457 14.9668C320.994 14.9668 320.361 14.9254 318.252 14.7964C319.054 15.9389 319.517 17.4683 319.517 18.8227C319.517 21.7065 317.66 24.1204 314.413 25.5623C312.85 26.281 311.965 26.6219 310.993 27.2576C310.74 27.382 310.617 27.511 310.617 27.6814C310.617 28.6535 311.584 29.0358 312.726 29.0358C313.148 29.0358 315.762 28.9529 316.142 28.9529C317.871 28.9529 319.517 29.1648 320.865 30.1829C321.498 30.6482 322.048 31.7906 322.048 32.9377C322.048 34.4211 321.668 35.0983 320.531 36.5402C318.463 38.9541 316.353 39.8847 315.298 40.2671C314.413 40.608 312.639 40.8613 311.584 40.8613C307.155 40.8613 305.637 38.6593 305.637 36.918C305.637 35.3931 306.059 34.6745 306.902 34.0387C308.04 33.1496 308.842 32.5554 310.319 31.6663C308.631 30.8186 307.576 30.1368 307.576 29.0358C307.576 28.6995 307.618 28.5291 307.874 28.2296C308.25 27.8058 310.025 26.9167 312.176 25.8986C310.488 25.6038 309.475 25.0095 308.507 24.1619C307.324 23.1438 306.65 21.4485 306.65 19.7993C306.65 17.2564 307.874 15.5611 309.897 14.0777C311.162 13.1426 312.726 12.2949 314.203 12.2949ZM317.11 20.435C317.11 18.6522 316.688 16.9569 315.931 15.7269C315.34 14.7549 314.115 13.7783 312.556 13.7368C311.543 13.7368 310.91 13.9902 310.319 14.543C309.727 15.1373 309.264 16.1093 309.264 17.9336C309.264 20.0941 310.025 22.0428 311.08 23.1023C312.469 24.4613 313.524 24.6732 314.203 24.6732C315.381 24.6732 317.11 23.4847 317.11 20.435ZM313.4 39.0831C315.298 39.0831 317.069 38.7422 318.715 37.4708C319.641 36.7936 320.022 35.7755 320.022 34.5455C320.022 33.7854 319.939 32.9377 319.054 32.3435C318.252 31.7906 317.11 31.5373 315.592 31.5373C314.115 31.5373 312.176 31.6202 311.038 32.0026C310.571 32.173 310.195 32.3849 309.475 33.0621C308.461 34.0387 308.127 35.1398 308.127 35.9459C308.127 37.0055 309.053 39.0831 313.4 39.0831Z" fill="#2E180F"/>
<path d="M294.384 28.5711L294.507 28.2762C295.649 27.6405 295.86 27.4286 295.943 26.5349C296.03 25.7333 296.03 23.4852 296.03 21.3661V17.2569C296.03 16.1098 295.86 15.8979 294.929 15.3912C294.553 15.1793 294.466 15.0503 294.466 14.9259C295.901 14.2026 297.084 13.5255 298.35 12.5949C298.561 12.4244 298.644 12.3369 298.772 12.3369C298.854 12.3369 298.896 12.5488 298.896 12.8068C298.813 13.9493 298.685 15.6031 298.731 16.4507C299.405 16.1098 301.597 14.2026 302.693 13.3135C303.073 12.9726 303.413 12.8068 303.665 12.8068C304.637 12.8068 305.522 13.6959 305.522 14.4146C305.522 14.8798 305.013 15.4741 304.508 16.0684C304.256 16.3217 304.045 16.4922 303.876 16.4922C303.706 16.4922 303.578 16.3632 303.413 16.1974C303.073 15.815 302.399 15.4326 301.89 15.4326C301.092 15.4326 299.739 16.4507 299.318 16.8746C298.772 17.4228 298.731 17.7222 298.731 19.0351V23.2733C298.731 25.6873 298.772 26.3691 298.813 26.7929C298.896 27.2996 299.148 27.6405 300.161 27.682L301.514 27.7649C301.725 27.8064 301.89 27.9768 301.89 28.1473L301.638 28.5296C300.753 28.4882 299.868 28.4882 298.983 28.4882C296.915 28.4882 294.847 28.7415 294.425 28.7415C294.342 28.7415 294.342 28.654 294.384 28.5711Z" fill="#2E180F"/>
<path d="M286.639 12.6367C287.817 12.6367 289 13.2724 289.716 13.9496C290.431 14.6683 290.981 15.562 291.279 16.7459C291.784 16.534 292.458 16.3221 292.628 16.4096C292.797 16.5755 292.797 16.7459 292.751 16.8749C292.586 17.2573 292.206 17.5936 291.953 17.6811C289.335 18.3168 284.231 19.2474 282.461 19.7127C282.292 19.7541 282.205 19.966 282.205 20.5189C282.292 25.1809 284.525 26.9176 287.015 26.9176C289.335 26.9176 290.812 26.2404 292.036 24.969C292.164 24.84 292.288 24.84 292.288 24.969C292.288 25.3513 292.206 25.7751 291.866 26.0285C290.266 27.4704 288.533 28.2766 287.226 28.7419C286.68 28.9123 286.171 28.9538 285.749 28.9538C283.135 28.9538 281.407 27.2171 280.898 26.7057C280.265 26.0285 279.169 24.2042 279.169 21.6199C279.169 18.1049 281.067 15.4745 283.259 13.9082C284.19 13.231 285.497 12.6367 286.639 12.6367ZM288.533 17.1698C288.533 15.6864 286.932 13.6963 285.286 13.6963C284.947 13.6963 284.612 13.7792 284.314 14.0326C283.094 14.9677 282.333 17.0454 282.333 19.0355C284.442 18.6117 286.212 18.1049 288.157 17.5936C288.409 17.5521 288.533 17.4231 288.533 17.1698Z" fill="#2E180F"/>
<path d="M275.033 4.20117C275.707 4.20117 276.298 4.8369 276.298 5.68454C276.298 6.70263 275.537 7.33836 274.78 7.33836C274.061 7.33836 273.345 6.78555 273.345 5.89645C273.345 4.75398 274.313 4.20117 275.033 4.20117ZM272.712 20.1774L272.584 15.5153C272.543 15.3495 272.162 15.2205 271.107 14.7552C270.984 14.7138 270.984 14.6262 270.984 14.5018C271.025 14.4143 271.107 14.3729 271.277 14.2899C272.46 13.9076 273.808 13.2718 275.413 12.4657C275.496 12.4242 275.578 12.3827 275.624 12.3827C275.665 12.3827 275.665 12.4242 275.665 12.5071C275.496 15.5614 275.285 21.0711 275.285 23.5265C275.285 25.5212 275.285 26.4103 275.326 27.046C275.367 27.3823 275.455 27.5527 275.789 27.6817C276.55 27.8936 277.183 28.018 277.312 28.0641C277.436 28.0641 277.523 28.1885 277.477 28.276L277.394 28.4418C277.312 28.5708 277.225 28.6123 277.055 28.6123C276.298 28.6123 275.367 28.5294 274.23 28.5294C272.543 28.5294 271.107 28.7827 270.938 28.7827C270.855 28.7827 270.773 28.7413 270.727 28.6538C270.727 28.6123 270.686 28.5708 270.686 28.4879C270.686 28.4004 270.727 28.3589 270.855 28.3175C271.869 27.9351 272.203 27.7232 272.414 26.6222C272.584 25.945 272.795 23.1026 272.712 20.1774Z" fill="#2E180F"/>
<path d="M265.046 12.3828C266.399 12.3828 267.871 12.931 268.714 13.6957C268.843 13.8201 268.93 13.9906 268.93 14.2025C268.93 14.6263 268.421 15.0501 267.958 15.391C267.747 15.5154 267.325 15.5615 267.114 15.4739C266.862 15.391 266.522 15.1791 266.142 14.9257C265.216 14.29 264.243 13.9076 263.147 13.9076C261.799 13.9076 260.827 14.6263 260.323 15.1376C259.222 16.1972 258.887 17.9339 258.887 20.1774C258.887 22.596 259.649 24.5446 260.405 25.3508C261.758 26.7927 262.936 27.2165 264.074 27.2165C265.72 27.2165 267.577 26.157 268.462 25.5212C268.59 25.4337 268.76 25.4337 268.76 25.5627C268.76 25.7331 268.59 26.0694 268.251 26.4103C267.788 26.8342 265.931 28.1056 264.583 28.5294C263.78 28.7828 262.936 28.9118 262.432 28.9118C261.166 28.9118 259.309 28.2761 258.213 27.3409C257.282 26.5808 255.976 24.6275 255.976 21.9602C255.976 18.0583 257.663 16.5335 258.337 15.8563C259.181 15.0087 260.997 13.8662 261.882 13.3963C262.936 12.8481 263.991 12.3828 265.046 12.3828Z" fill="#2E180F"/>
<path d="M237.028 28.5711L237.069 28.3592C238.294 27.7234 238.674 27.4286 238.798 26.369C238.926 25.0101 239.055 22.6376 239.055 20.1776C239.055 18.2704 239.009 16.916 238.968 16.1974C238.968 15.6031 238.844 15.4741 237.408 14.7969C237.321 14.7555 237.321 14.714 237.321 14.6265C237.367 14.456 237.45 14.3731 237.661 14.2902C239.261 13.6084 240.825 12.6364 241.159 12.4659C241.375 12.3369 241.458 12.3369 241.458 12.3369C241.586 12.3369 241.71 12.4244 241.71 12.7193C241.751 13.1016 241.668 14.1612 241.627 15.1793C241.627 15.3912 241.71 15.4326 241.751 15.3912C243.691 14.2902 244.622 13.7374 245.635 13.1846C246.268 12.8483 246.859 12.6778 247.533 12.6778C248.547 12.6778 249.514 13.0187 250.399 13.7374C251.289 14.456 252.046 15.8979 252.174 17.5517C252.215 18.3165 252.174 19.3299 252.174 21.1957C252.174 24.2039 252.133 25.6458 252.133 26.8343C252.133 27.2996 252.339 27.6405 252.931 27.7234C253.398 27.8064 253.774 27.8524 254.238 27.8939C254.366 27.9353 254.453 27.9768 254.453 28.0183C254.453 28.1473 254.366 28.3177 254.238 28.4881C254.155 28.6125 254.114 28.6125 253.944 28.6125C250.528 28.6125 249.391 28.8659 248.29 28.8659C247.997 28.8659 247.914 28.8659 247.827 28.7415L247.786 28.5711C248.882 27.9353 249.134 27.4286 249.262 26.6224C249.391 25.8577 249.514 24.2039 249.514 19.118C249.514 17.6347 249.262 16.5337 248.331 15.686C247.657 15.0503 246.859 14.714 245.718 14.714C244.328 14.714 242.764 15.3912 242.173 15.815C241.792 16.0269 241.751 16.2388 241.71 16.787C241.627 18.0585 241.627 24.7152 241.71 26.7468C241.751 27.2581 241.879 27.3825 243.397 27.9353C243.567 28.0643 243.649 28.1887 243.567 28.3177L243.397 28.5296H241.375C239.009 28.5296 237.872 28.8244 237.11 28.783C237.028 28.783 236.987 28.7415 237.028 28.5711Z" fill="#2E180F"/>
<path d="M227.83 12.5488C230.7 12.5488 235.047 15.1793 235.047 20.6475C235.047 24.6277 232.516 26.8343 231.924 27.1706C230.278 28.1473 228.549 28.9534 226.862 28.9534C225.427 28.9534 222.515 27.9768 220.997 26.0282C219.773 24.4158 219.31 22.4257 219.31 20.9009C219.31 19.2885 219.86 17.4688 220.869 16.1974C221.8 15.0088 222.391 14.5021 223.528 13.9493C224.753 13.3135 226.61 12.5488 227.83 12.5488ZM226.44 13.6959C225.468 13.6959 224.666 14.0322 224.033 14.6679C222.937 15.7735 222.474 17.3813 222.474 20.2651C222.474 22.9324 223.611 24.9686 224.455 25.9452C225.849 27.5115 227.284 27.8939 228.251 27.8939C228.884 27.8939 229.898 27.5944 230.319 27.2167C231.163 26.323 232.048 24.7982 232.048 22.1723C232.048 19.4589 231.25 16.5751 229.645 15.0503C228.93 14.3731 227.747 13.6959 226.44 13.6959Z" fill="#2E180F"/>
<path d="M193.322 15.4323C193.322 12.5484 193.996 8.94597 196.739 5.81339C198.807 3.52384 201.59 2.42283 203.869 1.82856C205.639 1.36328 208.253 1.15137 209.647 1.15137C211.587 1.15137 213.696 1.57519 215.172 2.08193C215.636 2.25238 216.268 1.99901 216.86 1.61665C216.947 1.52912 217.03 1.61665 217.071 1.65811C217.158 1.69957 217.241 1.7871 217.199 1.87002C216.356 3.81867 216.314 5.85485 216.525 7.55013C216.525 7.63305 216.479 7.72058 216.356 7.76204C216.103 7.76204 216.016 7.72058 215.934 7.4626C215.764 6.74395 215.512 5.6844 215.09 5.04867C214.668 4.4544 214.287 3.94766 213.613 3.48238C212.43 2.58867 210.83 2.04047 208.129 2.04047C204.754 2.04047 202.094 3.39485 199.985 6.06676C198.385 8.05687 197.16 11.3645 197.16 15.6856C197.16 20.1357 199.903 28.2759 208.803 28.2759C211.376 28.2759 213.604 27.2532 214.792 25.9863C215.704 25.0189 216.227 23.8718 216.658 23.0242C216.764 22.8169 220.656 16.3444 220.382 16.9433C220.973 17.2611 217.901 23.0702 217.635 23.752C217.135 25.0373 215.975 27.3407 215.383 28.2298C215.104 28.6582 214.92 28.6536 214.668 28.6536C213.572 28.5707 211.082 29.2893 208.129 29.2893C197.665 29.2893 193.322 21.9186 193.322 15.4323Z" fill="#2E180F"/>
<path d="M184.216 24.4622C184.216 25.6876 183.624 26.8347 182.189 27.7238C180.882 28.5714 179.488 28.8663 178.392 28.8663C177.507 28.8663 175.861 28.5714 175.27 28.4885C174.637 28.3181 174.385 28.3181 173.669 28.5714C173.628 28.5714 173.582 28.5714 173.541 28.4885C173.417 28.3595 173.417 28.2766 173.458 28.0647C173.669 26.6228 173.628 25.1809 173.5 23.9094C173.5 23.7804 173.541 23.656 173.669 23.5685C173.71 23.5685 173.71 23.5271 173.793 23.5271C174.174 24.7985 174.765 25.8581 175.691 26.8347C176.622 27.7653 178.058 28.1891 178.984 28.1891C179.997 28.1891 181.515 27.3414 181.515 25.2638C181.515 23.2322 178.984 22.3846 177.888 21.7903C176.792 21.196 173.963 19.8417 173.963 17.1283C173.963 15.8568 174.513 14.7558 175.779 13.7792C176.792 13.0191 178.058 12.6367 179.323 12.6367C179.997 12.6367 180.713 12.7611 181.515 12.7611C181.854 12.7611 182.107 12.7196 182.276 12.6782C182.359 12.6367 182.441 12.6367 182.529 12.7196C182.611 12.8072 182.611 12.8901 182.611 13.0191C182.652 14.1616 182.863 15.5159 183.285 16.7045C183.331 16.8749 183.331 17.0868 183.161 17.0868C182.95 17.0868 182.822 16.9578 182.487 16.4096C181.809 15.1796 180.502 13.4429 178.434 13.4429C177.466 13.4429 176.411 14.0786 176.411 16.0687C176.411 18.0589 178.012 18.6946 179.658 19.5008C180.671 20.0121 184.216 21.3665 184.216 24.4622Z" fill="#2E180F"/>
<path d="M160.816 28.5711L160.944 28.2762C162.081 27.6405 162.297 27.4286 162.38 26.5349C162.462 25.7333 162.462 23.4852 162.462 21.3661V17.2569C162.462 16.1098 162.297 15.8979 161.366 15.3912C160.986 15.1793 160.903 15.0503 160.903 14.9259C162.338 14.2026 163.517 13.5255 164.782 12.5949C164.993 12.4244 165.08 12.3369 165.204 12.3369C165.291 12.3369 165.333 12.5488 165.333 12.8068C165.25 13.9493 165.122 15.6031 165.163 16.4507C165.837 16.1098 168.034 14.2026 169.129 13.3135C169.51 12.9726 169.845 12.8068 170.102 12.8068C171.069 12.8068 171.954 13.6959 171.954 14.4146C171.954 14.8798 171.45 15.4741 170.945 16.0684C170.689 16.3217 170.478 16.4922 170.308 16.4922C170.143 16.4922 170.014 16.3632 169.845 16.1974C169.51 15.815 168.836 15.4326 168.327 15.4326C167.525 15.4326 166.176 16.4507 165.755 16.8746C165.204 17.4228 165.163 17.7222 165.163 19.0351V23.2733C165.163 25.6873 165.204 26.3691 165.25 26.7929C165.333 27.2996 165.585 27.6405 166.598 27.682L167.946 27.7649C168.157 27.8064 168.327 27.9768 168.327 28.1473L168.075 28.5296C167.19 28.4882 166.305 28.4882 165.415 28.4882C163.352 28.4882 161.284 28.7415 160.862 28.7415C160.775 28.7415 160.775 28.654 160.816 28.5711Z" fill="#2E180F"/>
<path d="M151.283 12.5488C154.153 12.5488 158.5 15.1793 158.5 20.6475C158.5 24.6277 155.969 26.8343 155.378 27.1706C153.731 28.1473 152.003 28.9534 150.315 28.9534C148.88 28.9534 145.968 27.9768 144.45 26.0282C143.226 24.4158 142.763 22.4257 142.763 20.9009C142.763 19.2885 143.313 17.4688 144.322 16.1974C145.253 15.0088 145.844 14.5021 146.981 13.9493C148.206 13.3135 150.063 12.5488 151.283 12.5488ZM149.893 13.6959C148.921 13.6959 148.119 14.0322 147.486 14.6679C146.39 15.7735 145.927 17.3813 145.927 20.2651C145.927 22.9324 147.064 24.9686 147.908 25.9452C149.302 27.5115 150.737 27.8939 151.705 27.8939C152.337 27.8939 153.351 27.5944 153.773 27.2167C154.616 26.323 155.501 24.7982 155.501 22.1723C155.501 19.4589 154.704 16.5751 153.099 15.0503C152.383 14.3731 151.2 13.6959 149.893 13.6959Z" fill="#2E180F"/>
<path d="M138.58 4.20117C139.258 4.20117 139.85 4.8369 139.85 5.68454C139.85 6.70263 139.089 7.33836 138.328 7.33836C137.612 7.33836 136.897 6.78555 136.897 5.89645C136.897 4.75398 137.864 4.20117 138.58 4.20117ZM136.26 20.1774L136.136 15.5153C136.094 15.3495 135.714 15.2205 134.659 14.7552C134.531 14.7138 134.531 14.6262 134.531 14.5018C134.577 14.4143 134.659 14.3729 134.829 14.2899C136.007 13.9076 137.36 13.2718 138.96 12.4657C139.048 12.4242 139.13 12.3827 139.171 12.3827C139.217 12.3827 139.217 12.4242 139.217 12.5071C139.048 15.5614 138.837 21.0711 138.837 23.5265C138.837 25.5212 138.837 26.4103 138.878 27.046C138.919 27.3823 139.006 27.5527 139.341 27.6817C140.102 27.8936 140.735 28.018 140.859 28.0641C140.987 28.0641 141.07 28.1885 141.029 28.276L140.946 28.4418C140.859 28.5708 140.776 28.6123 140.607 28.6123C139.85 28.6123 138.919 28.5294 137.782 28.5294C136.094 28.5294 134.659 28.7827 134.49 28.7827C134.407 28.7827 134.32 28.7413 134.279 28.6538C134.279 28.6123 134.237 28.5708 134.237 28.4879C134.237 28.4004 134.279 28.3589 134.407 28.3175C135.42 27.9351 135.755 27.7232 135.966 26.6222C136.136 25.945 136.347 23.1026 136.26 20.1774Z" fill="#2E180F"/>
<path d="M121.554 28.5711L121.683 28.2762C122.82 27.6405 123.031 27.4286 123.118 26.5349C123.2 25.7333 123.2 23.4852 123.2 21.3661V17.2569C123.2 16.1098 123.031 15.8979 122.104 15.3912C121.724 15.1793 121.641 15.0503 121.641 14.9259C123.077 14.2026 124.255 13.5255 125.521 12.5949C125.732 12.4244 125.819 12.3369 125.943 12.3369C126.03 12.3369 126.071 12.5488 126.071 12.8068C125.984 13.9493 125.86 15.6031 125.901 16.4507C126.575 16.1098 128.772 14.2026 129.868 13.3135C130.248 12.9726 130.583 12.8068 130.835 12.8068C131.807 12.8068 132.692 13.6959 132.692 14.4146C132.692 14.8798 132.188 15.4741 131.679 16.0684C131.427 16.3217 131.216 16.4922 131.046 16.4922C130.881 16.4922 130.753 16.3632 130.583 16.1974C130.248 15.815 129.57 15.4326 129.065 15.4326C128.263 15.4326 126.915 16.4507 126.493 16.8746C125.943 17.4228 125.901 17.7222 125.901 19.0351V23.2733C125.901 25.6873 125.943 26.3691 125.984 26.7929C126.071 27.2996 126.323 27.6405 127.337 27.682L128.685 27.7649C128.896 27.8064 129.065 27.9768 129.065 28.1473L128.813 28.5296C127.928 28.4882 127.038 28.4882 126.153 28.4882C124.085 28.4882 122.022 28.7415 121.6 28.7415C121.513 28.7415 121.513 28.654 121.554 28.5711Z" fill="#2E180F"/>
<path d="M113.809 12.6367C114.992 12.6367 116.171 13.2724 116.891 13.9496C117.606 14.6683 118.156 15.562 118.45 16.7459C118.954 16.534 119.633 16.3221 119.798 16.4096C119.967 16.5755 119.967 16.7459 119.926 16.8749C119.757 17.2573 119.376 17.5936 119.124 17.6811C116.51 18.3168 111.406 19.2474 109.632 19.7127C109.462 19.7541 109.379 19.966 109.379 20.5189C109.462 25.1809 111.7 26.9176 114.19 26.9176C116.51 26.9176 117.986 26.2404 119.211 24.969C119.335 24.84 119.463 24.84 119.463 24.969C119.463 25.3513 119.376 25.7751 119.041 26.0285C117.436 27.4704 115.707 28.2766 114.401 28.7419C113.85 28.9123 113.346 28.9538 112.924 28.9538C110.306 28.9538 108.577 27.2171 108.073 26.7057C107.44 26.0285 106.344 24.2042 106.344 21.6199C106.344 18.1049 108.242 15.4745 110.434 13.9082C111.36 13.231 112.672 12.6367 113.809 12.6367ZM115.707 17.1698C115.707 15.6864 114.103 13.6963 112.461 13.6963C112.122 13.6963 111.782 13.7792 111.489 14.0326C110.264 14.9677 109.508 17.0454 109.508 19.0355C111.617 18.6117 113.387 18.1049 115.327 17.5936C115.579 17.5521 115.707 17.4231 115.707 17.1698Z" fill="#2E180F"/>
<path d="M99.8229 10.0938C99.91 10.0938 99.9513 10.1352 99.9513 10.3057C99.9513 10.8124 99.8229 12.973 99.8229 13.3139C101.639 13.3139 103.872 13.102 104.968 13.102C105.307 13.102 105.394 13.102 105.349 13.3968C105.307 13.7791 105.266 14.12 105.138 14.4563C105.014 14.7143 104.803 14.7972 104.464 14.7972C103.409 14.8387 102.061 14.8387 99.9513 14.8387C99.8229 14.8387 99.7404 14.9677 99.6945 15.35C99.5707 17.7225 99.612 22.1726 99.612 24.4622C99.612 26.2404 100.795 27.217 102.272 27.217C103.157 27.217 103.872 27.0051 104.803 26.3694C104.968 26.1989 105.096 26.1989 105.183 26.2818C105.225 26.3694 105.266 26.4523 105.266 26.6227C105.266 26.7471 105.225 26.8346 104.762 27.1295C103.368 28.0646 101.68 29.0367 100.204 29.0367C99.5294 29.0367 98.218 28.7418 97.4201 27.7652C96.9111 27.1295 96.7873 26.3694 96.8698 24.757C96.9569 22.6794 96.9569 16.663 96.9982 15.1796C97.0395 15.0091 96.8285 14.8387 96.6589 14.8387C96.0673 14.8387 95.6042 14.8387 95.3107 14.7972C95.0127 14.7972 94.9714 14.6268 95.0539 14.5439C96.2783 13.3968 98.516 11.2362 99.401 10.3471C99.612 10.1352 99.6945 10.0938 99.8229 10.0938Z" fill="#2E180F"/>
<path d="M76.3546 28.5711L76.2031 28.4755L76.3411 28.4071L76.3733 28.3603L76.3546 28.2973L76.59 28.2667C77.8144 27.631 78.0008 27.4286 78.1246 26.369C78.253 25.0101 78.3814 22.6376 78.3814 20.1776C78.3814 18.2704 78.3355 16.916 78.2943 16.1974C78.2943 15.6031 78.1704 15.4741 76.7352 14.7969C76.648 14.7555 76.648 14.714 76.648 14.6265C76.6939 14.456 76.7764 14.3731 76.9874 14.2902C78.5877 13.6084 80.1514 12.6364 80.4862 12.4659C80.6971 12.3369 80.7842 12.3369 80.7842 12.3369C80.9126 12.3369 81.0364 12.4244 81.0364 12.7193C81.0777 13.1016 80.9951 14.1612 80.9539 15.1793C80.9539 15.3912 81.0364 15.4326 81.0777 15.3912C83.0174 14.2902 83.9482 13.7374 84.9617 13.1846C85.5945 12.8483 86.1814 12.6778 86.8601 12.6778C87.8689 12.6778 88.841 13.0187 89.7261 13.7374C90.6111 14.456 91.3723 15.8979 91.5007 17.5517C91.5419 18.3165 91.5007 19.3299 91.5007 21.1957C91.5007 24.2039 91.4594 25.6458 91.4594 26.8343C91.4594 27.2996 91.6658 27.6405 92.2573 27.7234C92.7204 27.8064 93.101 27.8524 93.5642 27.8939C93.6926 27.9353 93.7797 27.9768 93.7797 28.0183C93.7797 28.1473 93.6926 28.3177 93.5642 28.4881C93.4816 28.6125 93.4404 28.6125 93.2707 28.6125C89.8545 28.6125 88.7172 28.8659 87.6167 28.8659C87.3232 28.8659 87.2407 28.8659 87.1536 28.7415L87.1123 28.5711C88.2082 27.9353 88.4604 27.4286 88.5888 26.6224C88.7172 25.8577 88.841 24.2039 88.841 19.118C88.841 17.6347 88.5888 16.5337 87.6625 15.686C86.9839 15.0503 86.186 14.714 85.0442 14.714C83.6548 14.714 82.0911 15.3912 81.4996 15.815C81.1235 16.0269 81.0777 16.2388 81.0364 16.787C80.9539 18.0585 80.9539 24.7152 81.0364 26.7468C81.0777 27.2581 81.2061 27.3825 82.7239 27.9353C82.8936 28.0643 82.9761 28.1887 82.8936 28.3177L82.7239 28.5296H80.7017C78.3355 28.5296 77.1983 28.8244 76.4371 28.783C76.3546 28.783 76.3133 28.7415 76.3546 28.5711Z" fill="#2E180F"/>
<path d="M74.6525 1.8702L74.6938 2.12357C72.2451 2.67638 71.7406 3.18312 71.6123 4.03076C71.4884 4.66649 71.3188 6.4493 71.3188 11.4062V17.9754C71.3188 22.3825 71.4028 25.1373 71.571 26.2399C71.7407 27.0046 71.9103 27.2165 72.4973 27.5113C72.965 27.7232 73.5978 27.9351 74.2306 28.1056C75.6614 28.4392 77.0996 28.1136 77.4314 28.5612C77.1248 29.0522 74.6657 28.6828 74.1848 28.6538C72.1213 28.5294 70.4338 28.4879 69.1681 28.5294C67.6457 28.5709 66.0454 28.7828 65.3255 28.8242C65.032 28.8242 64.9494 28.6999 64.9036 28.6538C64.8623 28.4879 64.8623 28.4004 64.8623 28.359C66.6369 27.8937 67.6457 27.4284 67.8613 26.5347C68.0263 25.899 68.196 24.5031 68.196 18.1458V10.9409C68.196 3.86031 68.196 3.31211 67.2239 2.88829C66.6782 2.58885 66.1279 2.42301 65.4126 2.29402C65.2016 2.25256 65.1604 2.16503 65.1604 2.12357C65.2016 2.08211 65.2016 1.99919 65.2429 1.95312C65.2857 1.8702 65.3698 1.82874 65.4951 1.82874C65.7932 1.78728 66.0867 1.78728 66.5911 1.78728C67.5219 1.78728 68.2785 1.91166 69.8835 1.91166C71.7819 1.8702 73.5519 1.74121 74.2306 1.74121C74.5654 1.74121 74.6112 1.78728 74.6525 1.8702Z" fill="#2E180F"/>
<path d="M49.0962 12.3369C50.2792 12.3369 51.4577 12.9726 52.1777 13.6498C52.893 14.3685 53.4433 15.2622 53.7367 16.4461C54.2412 16.2342 54.9198 16.0223 55.0849 16.1098C55.2546 16.2757 55.2546 16.4461 55.2133 16.5751C55.0436 16.9575 54.663 17.2938 54.4108 17.3813C51.797 18.017 46.6933 18.9476 44.9187 19.4129C44.749 19.4543 44.6665 19.6662 44.6665 20.219C44.749 24.8811 46.9868 26.6178 49.4768 26.6178C51.797 26.6178 53.2736 25.9406 54.4979 24.6692C54.6218 24.5402 54.7501 24.5402 54.7501 24.6692C54.7501 25.0515 54.663 25.4753 54.3283 25.7287C52.7233 27.1706 50.9946 27.9768 49.6877 28.4421C49.1374 28.6125 48.633 28.654 48.2111 28.654C45.5928 28.654 43.864 26.9172 43.3596 26.4059C42.7268 25.7287 41.6309 23.9044 41.6309 21.3201C41.6309 17.8051 43.5293 15.1747 45.7212 13.6084C46.6475 12.9312 47.9589 12.3369 49.0962 12.3369ZM50.9946 16.8699C50.9946 15.3866 49.3896 13.3965 47.748 13.3965C47.4087 13.3965 47.0693 13.4794 46.7759 13.7328C45.5515 14.6679 44.7949 16.7456 44.7949 18.7357C46.9043 18.3119 48.6743 17.8051 50.614 17.2938C50.8662 17.2523 50.9946 17.1233 50.9946 16.8699Z" fill="#2E180F"/>
<path d="M11.3358 16.4091V12.1294C11.3358 4.33021 11.3771 3.01729 11.1662 2.84684H7.7912C3.48995 2.84684 2.6462 3.44111 2.13721 3.69448C1.42186 4.1183 0.619387 5.47269 0.0278493 6.74415C-0.0546909 6.9146 -0.183087 6.9146 -0.265627 6.83168C-0.394022 6.70269 -0.476562 6.53224 -0.476562 6.32033C-0.0546909 5.38976 0.958718 3.14168 1.5044 0.133473C1.55026 0.0920124 1.6328 0.0920124 1.80246 0.174934C1.92627 0.262462 1.97213 0.262462 1.97213 0.432911C2.13721 1.28055 2.2656 1.53392 2.55908 1.61684C2.89841 1.82875 3.32028 1.87021 4.37496 1.87021C5.81024 1.95774 7.49773 1.95774 11.1662 1.95774C16.5267 1.95774 20.1539 1.87021 23.8636 1.6583C25.2989 1.57538 25.973 1.15156 27.3257 0.0505518C27.4954 -0.119898 27.5779 -0.119898 27.7063 0.0090911C27.7888 0.133473 27.7888 0.221001 27.7888 0.432911C27.7888 2.97583 27.6192 6.27887 27.6192 10.8994V14.6723C27.6192 14.7967 27.7063 15.0547 27.8714 14.9672C28.6326 14.6309 31.1638 13.4423 32.1359 13.06C33.1035 12.6776 33.6538 12.5118 34.2453 12.5118C37.8312 12.5118 38.6291 15.6029 38.6291 18.8691C38.6291 20.0945 38.5053 22.8954 38.5053 25.6502C38.5053 27.0046 38.5878 27.2165 40.0231 27.8522C40.3166 28.0227 40.4037 28.0227 40.4037 28.1471V28.2761C40.4037 28.4465 40.3624 28.488 40.0644 28.488H37.6615C35.8044 28.488 34.2453 28.6999 33.906 28.6999C33.7363 28.6999 33.7363 28.6584 33.695 28.5294C33.6538 28.405 33.695 28.3175 33.7776 28.2346C33.906 28.1471 34.4104 27.8108 34.8781 27.5574C35.4238 27.2165 35.5935 26.9631 35.7219 25.9865C35.9328 24.1668 35.8869 22.9368 35.8869 20.7763C35.8869 16.9619 35.2129 15.9024 34.3278 15.2206C33.4016 14.5434 32.6816 14.4604 31.7966 14.4604C30.531 14.4604 28.9261 15.0086 28.041 15.5615C27.6604 15.7734 27.5366 15.9438 27.5366 16.75V21.4949C27.5366 24.0379 27.6192 25.4383 27.7888 26.6637C27.9172 27.2994 28.0823 27.4699 29.646 27.9352C29.8157 27.9812 29.8569 28.0641 29.8982 28.2346C29.8569 28.405 29.8157 28.4465 29.6873 28.4465C26.7342 28.4465 25.1751 28.4465 23.6114 28.6999C23.3179 28.7413 23.1482 28.7413 23.107 28.617L23.0199 28.488C23.0199 28.4465 22.9786 28.405 23.0199 28.359C24.8357 27.175 24.9641 27.1336 24.9641 22.8079L24.9183 6.0255C24.9183 3.65302 24.7532 3.18774 23.9507 3.05875C23.107 2.8883 21.2911 2.76392 18.2142 2.76392H15.5546C14.9218 2.76392 14.7934 3.18774 14.7521 3.77741C14.6695 4.54212 14.4999 7.00212 14.4999 12.3828V16.75C14.4999 22.8493 14.6283 24.715 14.7108 25.4383C14.7934 26.074 14.963 26.5808 15.3849 26.9631C16.059 27.5574 17.5355 27.8108 18.9708 28.0227C19.1405 28.0641 19.223 28.1056 19.1817 28.2346L19.1405 28.359C19.0579 28.488 18.9295 28.5709 18.3793 28.5709C17.2008 28.5709 14.7108 28.4465 12.8537 28.4465C11.0836 28.4465 9.30903 28.7413 7.7912 28.7413C7.28679 28.7413 7.1584 28.6584 7.11713 28.4465V28.2346C7.70866 28.1471 8.72207 27.9352 9.47869 27.6403C10.3224 27.387 10.9552 27.0046 11.1249 25.9036C11.2074 25.4383 11.3358 22.6374 11.3358 16.4091Z" fill="#2E180F"/>
</g>
<defs>
<clipPath id="clip0_203_73">
<rect width="343" height="41" fill="white"/>
</clipPath>
</defs>
</svg>
